PathFileType	4	(X/Y/Z)	C:\Users\°ÂÌØÂü\Desktop\20210112\bx_y_10_901-Unnamed.trc
DataRate	CameraRate	NumFrames	NumMarkers	Units	OrigDataRate	OrigDataStartFrame	OrigNumFrames
50.00	50.00	       4	0	mm	50.00	67	       530
Frame#	Time	
		

67	1.320	-440.68091	113.91164	1789.17688	-551.80731	103.99799	1386.77222	-675.58124	-2.37574	1041.02490	-661.64380	217.17648	1057.53796	-660.89972	-5.88650	808.85657	-715.30310	284.44611	876.99237	-757.06311	280.88409	747.27002	-777.46008	254.66684	636.78986	-773.88922	248.86378	572.90521	-808.10327	259.13290	496.29504	-518.04572	-72.33260	142.97556	-720.26733	77.12731	217.53673	-603.82306	19.40341	167.39879	-675.92975	56.16594	159.22383	-715.85846	154.90523	218.93469	-774.14429	224.47632	202.77679	-596.39148	223.45656	175.10205	-882.42584	296.01208	144.62569	-562.42352	261.15424	166.22032	-667.23254	299.54147	159.55672	-629.51563	306.69589	161.35570	-528.12299	303.67792	146.34492	-588.77966	-70.29839	1519.48145	-867.91504	101.26732	1075.51599	-770.28253	-5.52924	205.24892	-795.47949	55.42973	173.58420	-797.42346	174.71510	182.26317	-796.73315	-32.24503	484.02802	-562.63489	-40.60994	164.37447	-665.22217	-66.83907	163.02899	-875.90887	-78.47836	141.27299	-763.89990	-47.39582	716.47681	-750.87994	-25.86232	616.90100	-757.71692	-22.08989	566.14001	-676.53241	173.34631	159.31335	-624.01996	-77.85418	159.45320	-734.71741	-64.47526	870.69910	-659.79773	213.84505	817.72638	-716.52771	207.54541	535.37714	-597.96783	288.66113	1511.74524	-730.86816	82.36429	573.74115	-737.52209	145.11467	573.70123	-703.11945	20.21420	523.80988	
68	1.340	-425.27350	113.36056	1779.91882	-547.67426	103.01776	1380.83411	-679.71863	-1.84124	1040.01233				-664.28754	-5.07944	808.64197	-719.06958	284.75592	876.87518	-760.61798	280.79666	746.75012	-779.95770	254.47842	636.01758	-776.30194	248.85834	572.96796	-809.56726	259.59283	496.19141	-518.09564	-72.30031	142.67703	-720.30914	76.93671	217.81017	-604.14014	19.35162	167.55688	-675.95679	55.74181	159.37151	-716.03448	155.07938	218.77763	-774.27643	225.01697	202.73013	-596.18982	223.26515	175.15852	-882.58716	296.36963	144.83078	-562.33154	261.06717	166.13908	-667.17334	299.23907	159.35715	-629.51581	306.82272	161.51337	-528.29834	303.99689	146.40416	-580.87976	-70.71588	1514.72449	-872.03857	101.32164	1076.12817	-770.67676	-5.91039	204.91364	-795.94995	54.88473	173.34746	-797.77930	174.85281	182.33801	-798.85712	-32.70141	483.63016	-562.73212	-40.57519	164.40962	-665.06781	-66.96670	162.85585	-876.12769	-78.51554	141.48257	-767.17255	-48.08568	716.68481	-753.56470	-25.93273	617.00549	-760.56512	-22.80210	566.28430	-676.40686	173.28471	159.60866	-623.99030	-77.69740	159.22568	-738.23138	-63.98073	870.30579	-663.31879	214.52950	818.05292	-718.58582	207.36620	535.14423	-590.18616	287.37735	1506.71631	-733.64038	82.36009	573.92035	-739.47473	145.34848	573.44830	-705.60773	20.18383	523.76532	
69	1.360	-410.17590	112.08994	1770.10535	-543.48474	103.09947	1374.36841							-668.51569	-5.09673	808.82892	-722.90765	284.94693	877.09174	-764.27576	281.26031	746.71295	-782.68024	254.69704	635.44220	-778.60651	249.40408	572.73505	-811.51672	259.58942	495.21207	-518.10211	-72.31660	142.89677	-721.04291	76.64240	218.00713	-604.28058	19.21662	167.69467	-676.23767	55.51918	159.13699	-716.10077	155.15552	218.74121	-774.43677	225.06915	202.61574	-596.27710	223.32002	174.98164	-882.52484	296.03116	144.59401	-561.94818	260.63077	166.06073	-667.44116	299.75803	159.15913	-629.57349	306.78134	161.68750	-528.15961	303.97003	146.44019	-572.11389	-70.99670	1508.68689	-875.86102	101.06329	1076.26587	-771.55853	-6.08835	204.94856	-796.30621	54.67958	173.31284	-797.75409	174.71127	182.17004	-800.88611	-32.78838	483.47763	-563.08453	-40.18606	164.20992	-665.23059	-67.08376	163.00522	-876.17596	-78.55567	141.83234	-770.13226	-47.39636	715.62231	-756.50824	-26.09259	616.67792	-763.30634	-22.61935	565.96362	-676.46344	173.52968	159.51053	-624.04291	-77.94911	159.38356	-742.49219	-64.47312	870.27582	-667.07867	214.53008	818.16736	-720.08630	207.52174	535.47113	-581.87329	287.03799	1501.96411	-735.83008	83.06156	573.82349	-741.79565	145.37041	573.44299	-707.89990	20.12050	524.20825	
70	1.380	-394.61182	111.89662	1759.45776	-540.29913	102.88335	1367.81787							-672.06744	-4.70076	808.71796	-726.69806	284.68365	876.61517	-767.59766	282.04459	747.00519	-785.26892	254.97267	635.42102	-780.67371	248.63678	571.70062	-813.19611	259.79721	495.22675	-518.02216	-72.39582	143.06265	-721.79071	76.42317	218.30502	-604.39825	19.19169	167.58891	-676.40314	55.53993	159.56795	-716.32800	155.38150	218.79727	-774.61902	224.96326	202.36276	-596.26068	223.38031	174.88063	-882.60339	296.33139	144.77888	-562.16882	260.61026	166.00169	-667.30225	299.51996	159.16138	-629.37036	306.72910	161.48209	-528.13531	303.89291	146.40233	-562.83087	-71.14796	1502.10632	-879.17413	100.74835	1076.83447	-771.58868	-6.11357	204.60384	-796.47345	54.62957	173.24800	-797.90051	174.75594	182.06528	-802.65741	-32.87513	483.25742	-563.11945	-39.90662	164.09697	-665.24451	-67.07012	162.78206	-876.03320	-78.59757	141.50241	-773.91742	-47.74414	715.95471	-759.33905	-26.18966	616.68237	-765.67712	-22.44847	565.57233	-676.33728	173.66904	160.01765	-624.08282	-77.75345	159.07648	-746.40509	-64.49756	870.17291	-670.77478	214.43744	818.12714	-722.47412	207.65401	535.45801	-573.59991	287.20197	1497.20496	-739.16913	82.00433	572.82263	-744.22888	145.66159	573.09552	-710.02716	19.80424	524.21466	
